<svg width="1024" height="1024" viewBox="0 0 1024 1024" fill="none" xmlns="http://www.w3.org/2000/svg">
  <defs>
    <linearGradient id="glass" x1="118" y1="92" x2="894" y2="904" gradientUnits="userSpaceOnUse">
      <stop offset="0" stop-color="#FFFFFF" stop-opacity="0.92"></stop>
      <stop offset="0.36" stop-color="#DFF0FF" stop-opacity="0.78"></stop>
      <stop offset="1" stop-color="#A8D5FF" stop-opacity="0.7"></stop>
    </linearGradient>
    <linearGradient id="blue" x1="286" y1="447" x2="669" y2="734" gradientUnits="userSpaceOnUse">
      <stop offset="0" stop-color="#5ACBFA"></stop>
      <stop offset="0.48" stop-color="#007AFF"></stop>
      <stop offset="1" stop-color="#155EEF"></stop>
    </linearGradient>
    <linearGradient id="telegram" x1="676" y1="145" x2="874" y2="342" gradientUnits="userSpaceOnUse">
      <stop offset="0" stop-color="#6FDCFF"></stop>
      <stop offset="1" stop-color="#007AFF"></stop>
    </linearGradient>
    <filter id="softShadow" x="80" y="84" width="864" height="880" filterUnits="userSpaceOnUse" color-interpolation-filters="sRGB">
      <feDropShadow dx="0" dy="28" stdDeviation="34" flood-color="#007AFF" flood-opacity="0.18"></feDropShadow>
      <feDropShadow dx="0" dy="8" stdDeviation="16" flood-color="#1C1C1E" flood-opacity="0.16"></feDropShadow>
    </filter>
    <filter id="innerLight" x="108" y="104" width="808" height="808" filterUnits="userSpaceOnUse" color-interpolation-filters="sRGB">
      <feGaussianBlur stdDeviation="18" result="blur"></feGaussianBlur>
      <feComposite in="SourceGraphic" in2="blur" operator="over"></feComposite>
    </filter>
  </defs>
  <rect width="1024" height="1024" rx="226" fill="#E5F2FF"></rect>
  <g filter="url(#softShadow)">
    <rect x="126" y="112" width="772" height="772" rx="184" fill="url(#glass)" stroke="white" stroke-width="14"></rect>
    <path d="M178 235C270 120 445 118 533 222C596 177 690 186 744 248C833 350 759 512 624 512H293C176 512 101 375 178 235Z" fill="white" fill-opacity="0.38" filter="url(#innerLight)"></path>
    <path d="M184 276C276 173 425 173 512 270C578 223 672 234 722 303C789 395 724 525 610 525H302C196 525 119 395 184 276Z" fill="white" fill-opacity="0.78"></path>
    <text x="514" y="414" text-anchor="middle" font-family="SF Pro Display, Inter, Arial, sans-serif" font-size="136" font-weight="800" fill="#007AFF">115</text>
    <rect x="209" y="494" width="436" height="254" rx="62" fill="url(#blue)"></rect>
    <rect x="209" y="494" width="436" height="254" rx="62" fill="white" fill-opacity="0.12"></rect>
    <path d="M331 594L427 506L523 594H467V686H387V594H331Z" fill="white"></path>
    <circle cx="746" cy="250" r="112" fill="url(#telegram)"></circle>
    <circle cx="746" cy="250" r="112" fill="white" fill-opacity="0.12"></circle>
    <path d="M817 187L683 240C662 248 663 278 684 285L719 297L733 338C740 359 770 361 780 342L843 216C853 196 836 179 817 187Z" fill="white"></path>
    <path d="M723 297L784 236L742 320L733 338L719 297H723Z" fill="#B0D9FF"></path>
    <path d="M286 792C392 856 605 859 732 795" stroke="white" stroke-opacity="0.42" stroke-width="26" stroke-linecap="round"></path>
  </g>
</svg>